<?xml version="1.0" encoding="UTF-8"?>
<svg width="158px" height="129px" viewBox="0 0 208 169" version="1.1" xmlns="http://www.w3.org/2000/svg" xmlns:xlink="http://www.w3.org/1999/xlink">
    <!-- Generator: sketchtool 50.2 (55047) - http://www.bohemiancoding.com/sketch -->
    <title>A607E33A-99B8-4722-96E0-65299E62C213</title>
    <desc>Created with sketchtool.</desc>
    <defs></defs>
    <g id="landing-page" stroke="none" stroke-width="1" fill="none" fill-rule="evenodd">
        <g id="temp-landing" transform="translate(-1180.000000, -1458.000000)">
            <g id="Group-6" transform="translate(1180.000000, 1458.000000)">
                <path d="M102.838022,5.29008745 C129.176044,16.1737648 153,40.46457 153,58.7816115 C153,77.0986531 128.699669,64.5266626 120.796487,88.3079622 C112.893306,112.089262 127.090546,141.845906 120.796487,155.684529 C114.502429,169.523151 97.703431,176.233173 60.8626696,155.684529 C24.0219083,135.135885 1.32427686e-15,108.750846 0,88.3079622 C0,67.8650782 40.0045426,75.6721596 49.664734,58.7816115 C59.3249254,41.8910635 37.7759756,19.8020314 44.1791379,11.0620962 C50.5823001,2.32216092 76.5,-5.59358995 102.838022,5.29008745 Z" id="Path-41" fill="#B7ECEC"></path>
                <g id="Group-6-Copy" transform="translate(52.000000, 65.000000)" fill="#00848E">
                    <circle id="Oval-9" cx="2" cy="2.5" r="2"></circle>
                    <circle id="Oval-9" cx="10" cy="2.5" r="2"></circle>
                    <circle id="Oval-9" cx="18" cy="2.5" r="2"></circle>
                    <circle id="Oval-9" cx="26" cy="2.5" r="2"></circle>
                    <circle id="Oval-9" cx="34" cy="2.5" r="2"></circle>
                    <circle id="Oval-9" cx="2" cy="10.5" r="2"></circle>
                    <circle id="Oval-9" cx="10" cy="10.5" r="2"></circle>
                    <circle id="Oval-9" cx="18" cy="10.5" r="2"></circle>
                    <circle id="Oval-9" cx="26" cy="10.5" r="2"></circle>
                    <circle id="Oval-9" cx="34" cy="10.5" r="2"></circle>
                    <circle id="Oval-9" cx="2" cy="18.5" r="2"></circle>
                    <circle id="Oval-9" cx="10" cy="18.5" r="2"></circle>
                    <circle id="Oval-9" cx="18" cy="18.5" r="2"></circle>
                    <circle id="Oval-9" cx="26" cy="18.5" r="2"></circle>
                    <circle id="Oval-9" cx="34" cy="18.5" r="2"></circle>
                    <circle id="Oval-9" cx="2" cy="26.5" r="2"></circle>
                    <circle id="Oval-9" cx="10" cy="26.5" r="2"></circle>
                    <circle id="Oval-9" cx="18" cy="26.5" r="2"></circle>
                    <circle id="Oval-9" cx="26" cy="26.5" r="2"></circle>
                    <circle id="Oval-9" cx="34" cy="26.5" r="2"></circle>
                    <circle id="Oval-9" cx="2" cy="34.5" r="2"></circle>
                    <circle id="Oval-9" cx="10" cy="34.5" r="2"></circle>
                    <circle id="Oval-9" cx="18" cy="34.5" r="2"></circle>
                    <circle id="Oval-9" cx="26" cy="34.5" r="2"></circle>
                    <circle id="Oval-9" cx="34" cy="34.5" r="2"></circle>
                    <circle id="Oval-9" cx="42" cy="2.5" r="2"></circle>
                    <circle id="Oval-9" cx="50" cy="2.5" r="2"></circle>
                    <circle id="Oval-9" cx="58" cy="2.5" r="2"></circle>
                    <circle id="Oval-9" cx="66" cy="2.5" r="2"></circle>
                    <circle id="Oval-9" cx="74" cy="2.5" r="2"></circle>
                    <circle id="Oval-9" cx="42" cy="10.5" r="2"></circle>
                    <circle id="Oval-9" cx="50" cy="10.5" r="2"></circle>
                    <circle id="Oval-9" cx="58" cy="10.5" r="2"></circle>
                    <circle id="Oval-9" cx="66" cy="10.5" r="2"></circle>
                    <circle id="Oval-9" cx="74" cy="10.5" r="2"></circle>
                    <circle id="Oval-9" cx="42" cy="18.5" r="2"></circle>
                    <circle id="Oval-9" cx="50" cy="18.5" r="2"></circle>
                    <circle id="Oval-9" cx="58" cy="18.5" r="2"></circle>
                    <circle id="Oval-9" cx="66" cy="18.5" r="2"></circle>
                    <circle id="Oval-9" cx="74" cy="18.5" r="2"></circle>
                    <circle id="Oval-9" cx="42" cy="26.5" r="2"></circle>
                    <circle id="Oval-9" cx="50" cy="26.5" r="2"></circle>
                    <circle id="Oval-9" cx="58" cy="26.5" r="2"></circle>
                    <circle id="Oval-9" cx="66" cy="26.5" r="2"></circle>
                    <circle id="Oval-9" cx="74" cy="26.5" r="2"></circle>
                    <circle id="Oval-9" cx="42" cy="34.5" r="2"></circle>
                    <circle id="Oval-9" cx="50" cy="34.5" r="2"></circle>
                    <circle id="Oval-9" cx="58" cy="34.5" r="2"></circle>
                    <circle id="Oval-9" cx="66" cy="34.5" r="2"></circle>
                    <circle id="Oval-9" cx="74" cy="34.5" r="2"></circle>
                    <circle id="Oval-9" cx="2" cy="42.5" r="2"></circle>
                    <circle id="Oval-9" cx="10" cy="42.5" r="2"></circle>
                    <circle id="Oval-9" cx="18" cy="42.5" r="2"></circle>
                    <circle id="Oval-9" cx="26" cy="42.5" r="2"></circle>
                    <circle id="Oval-9" cx="34" cy="42.5" r="2"></circle>
                    <circle id="Oval-9" cx="2" cy="50.5" r="2"></circle>
                    <circle id="Oval-9" cx="10" cy="50.5" r="2"></circle>
                    <circle id="Oval-9" cx="18" cy="50.5" r="2"></circle>
                    <circle id="Oval-9" cx="26" cy="50.5" r="2"></circle>
                    <circle id="Oval-9" cx="34" cy="50.5" r="2"></circle>
                    <circle id="Oval-9" cx="2" cy="58.5" r="2"></circle>
                    <circle id="Oval-9" cx="10" cy="58.5" r="2"></circle>
                    <circle id="Oval-9" cx="18" cy="58.5" r="2"></circle>
                    <circle id="Oval-9" cx="26" cy="58.5" r="2"></circle>
                    <circle id="Oval-9" cx="34" cy="58.5" r="2"></circle>
                    <circle id="Oval-9" cx="2" cy="66.5" r="2"></circle>
                    <circle id="Oval-9" cx="10" cy="66.5" r="2"></circle>
                    <circle id="Oval-9" cx="18" cy="66.5" r="2"></circle>
                    <circle id="Oval-9" cx="26" cy="66.5" r="2"></circle>
                    <circle id="Oval-9" cx="34" cy="66.5" r="2"></circle>
                    <circle id="Oval-9" cx="2" cy="74.5" r="2"></circle>
                    <circle id="Oval-9" cx="10" cy="74.5" r="2"></circle>
                    <circle id="Oval-9" cx="18" cy="74.5" r="2"></circle>
                    <circle id="Oval-9" cx="26" cy="74.5" r="2"></circle>
                    <circle id="Oval-9" cx="34" cy="74.5" r="2"></circle>
                    <circle id="Oval-9" cx="42" cy="42.5" r="2"></circle>
                    <circle id="Oval-9" cx="50" cy="42.5" r="2"></circle>
                    <circle id="Oval-9" cx="58" cy="42.5" r="2"></circle>
                    <circle id="Oval-9" cx="66" cy="42.5" r="2"></circle>
                    <circle id="Oval-9" cx="74" cy="42.5" r="2"></circle>
                    <circle id="Oval-9" cx="42" cy="50.5" r="2"></circle>
                    <circle id="Oval-9" cx="50" cy="50.5" r="2"></circle>
                    <circle id="Oval-9" cx="58" cy="50.5" r="2"></circle>
                    <circle id="Oval-9" cx="66" cy="50.5" r="2"></circle>
                    <circle id="Oval-9" cx="74" cy="50.5" r="2"></circle>
                    <circle id="Oval-9" cx="42" cy="58.5" r="2"></circle>
                    <circle id="Oval-9" cx="50" cy="58.5" r="2"></circle>
                    <circle id="Oval-9" cx="58" cy="58.5" r="2"></circle>
                    <circle id="Oval-9" cx="66" cy="58.5" r="2"></circle>
                    <circle id="Oval-9" cx="74" cy="58.5" r="2"></circle>
                    <circle id="Oval-9" cx="42" cy="66.5" r="2"></circle>
                    <circle id="Oval-9" cx="50" cy="66.5" r="2"></circle>
                    <circle id="Oval-9" cx="58" cy="66.5" r="2"></circle>
                    <circle id="Oval-9" cx="66" cy="66.5" r="2"></circle>
                    <circle id="Oval-9" cx="74" cy="66.5" r="2"></circle>
                    <circle id="Oval-9" cx="42" cy="74.5" r="2"></circle>
                    <circle id="Oval-9" cx="50" cy="74.5" r="2"></circle>
                    <circle id="Oval-9" cx="58" cy="74.5" r="2"></circle>
                    <circle id="Oval-9" cx="66" cy="74.5" r="2"></circle>
                    <circle id="Oval-9" cx="74" cy="74.5" r="2"></circle>
                    <circle id="Oval-9" cx="82" cy="2.5" r="2"></circle>
                    <circle id="Oval-9" cx="90" cy="2.5" r="2"></circle>
                    <circle id="Oval-9" cx="98" cy="2.5" r="2"></circle>
                    <circle id="Oval-9" cx="106" cy="2.5" r="2"></circle>
                    <circle id="Oval-9" cx="114" cy="2.5" r="2"></circle>
                    <circle id="Oval-9" cx="82" cy="10.5" r="2"></circle>
                    <circle id="Oval-9" cx="90" cy="10.5" r="2"></circle>
                    <circle id="Oval-9" cx="98" cy="10.5" r="2"></circle>
                    <circle id="Oval-9" cx="106" cy="10.5" r="2"></circle>
                    <circle id="Oval-9" cx="114" cy="10.5" r="2"></circle>
                    <circle id="Oval-9" cx="82" cy="18.5" r="2"></circle>
                    <circle id="Oval-9" cx="90" cy="18.5" r="2"></circle>
                    <circle id="Oval-9" cx="98" cy="18.5" r="2"></circle>
                    <circle id="Oval-9" cx="106" cy="18.5" r="2"></circle>
                    <circle id="Oval-9" cx="114" cy="18.5" r="2"></circle>
                    <circle id="Oval-9" cx="82" cy="26.5" r="2"></circle>
                    <circle id="Oval-9" cx="90" cy="26.5" r="2"></circle>
                    <circle id="Oval-9" cx="98" cy="26.5" r="2"></circle>
                    <circle id="Oval-9" cx="106" cy="26.5" r="2"></circle>
                    <circle id="Oval-9" cx="114" cy="26.5" r="2"></circle>
                    <circle id="Oval-9" cx="82" cy="34.5" r="2"></circle>
                    <circle id="Oval-9" cx="90" cy="34.5" r="2"></circle>
                    <circle id="Oval-9" cx="98" cy="34.5" r="2"></circle>
                    <circle id="Oval-9" cx="106" cy="34.5" r="2"></circle>
                    <circle id="Oval-9" cx="114" cy="34.5" r="2"></circle>
                    <circle id="Oval-9" cx="122" cy="2.5" r="2"></circle>
                    <circle id="Oval-9" cx="130" cy="2.5" r="2"></circle>
                    <circle id="Oval-9" cx="138" cy="2.5" r="2"></circle>
                    <circle id="Oval-9" cx="146" cy="2.5" r="2"></circle>
                    <circle id="Oval-9" cx="154" cy="2.5" r="2"></circle>
                    <circle id="Oval-9" cx="122" cy="10.5" r="2"></circle>
                    <circle id="Oval-9" cx="130" cy="10.5" r="2"></circle>
                    <circle id="Oval-9" cx="138" cy="10.5" r="2"></circle>
                    <circle id="Oval-9" cx="146" cy="10.5" r="2"></circle>
                    <circle id="Oval-9" cx="154" cy="10.5" r="2"></circle>
                    <circle id="Oval-9" cx="122" cy="18.5" r="2"></circle>
                    <circle id="Oval-9" cx="130" cy="18.5" r="2"></circle>
                    <circle id="Oval-9" cx="138" cy="18.5" r="2"></circle>
                    <circle id="Oval-9" cx="146" cy="18.5" r="2"></circle>
                    <circle id="Oval-9" cx="154" cy="18.5" r="2"></circle>
                    <circle id="Oval-9" cx="122" cy="26.5" r="2"></circle>
                    <circle id="Oval-9" cx="130" cy="26.5" r="2"></circle>
                    <circle id="Oval-9" cx="138" cy="26.5" r="2"></circle>
                    <circle id="Oval-9" cx="146" cy="26.5" r="2"></circle>
                    <circle id="Oval-9" cx="154" cy="26.5" r="2"></circle>
                    <circle id="Oval-9" cx="122" cy="34.5" r="2"></circle>
                    <circle id="Oval-9" cx="130" cy="34.5" r="2"></circle>
                    <circle id="Oval-9" cx="138" cy="34.5" r="2"></circle>
                    <circle id="Oval-9" cx="146" cy="34.5" r="2"></circle>
                    <circle id="Oval-9" cx="154" cy="34.5" r="2"></circle>
                    <circle id="Oval-9" cx="82" cy="42.5" r="2"></circle>
                    <circle id="Oval-9" cx="90" cy="42.5" r="2"></circle>
                    <circle id="Oval-9" cx="98" cy="42.5" r="2"></circle>
                    <circle id="Oval-9" cx="106" cy="42.5" r="2"></circle>
                    <circle id="Oval-9" cx="114" cy="42.5" r="2"></circle>
                    <circle id="Oval-9" cx="82" cy="50.5" r="2"></circle>
                    <circle id="Oval-9" cx="90" cy="50.5" r="2"></circle>
                    <circle id="Oval-9" cx="98" cy="50.5" r="2"></circle>
                    <circle id="Oval-9" cx="106" cy="50.5" r="2"></circle>
                    <circle id="Oval-9" cx="114" cy="50.5" r="2"></circle>
                    <circle id="Oval-9" cx="82" cy="58.5" r="2"></circle>
                    <circle id="Oval-9" cx="90" cy="58.5" r="2"></circle>
                    <circle id="Oval-9" cx="98" cy="58.5" r="2"></circle>
                    <circle id="Oval-9" cx="106" cy="58.5" r="2"></circle>
                    <circle id="Oval-9" cx="114" cy="58.5" r="2"></circle>
                    <circle id="Oval-9" cx="82" cy="66.5" r="2"></circle>
                    <circle id="Oval-9" cx="90" cy="66.5" r="2"></circle>
                    <circle id="Oval-9" cx="98" cy="66.5" r="2"></circle>
                    <circle id="Oval-9" cx="106" cy="66.5" r="2"></circle>
                    <circle id="Oval-9" cx="114" cy="66.5" r="2"></circle>
                    <circle id="Oval-9" cx="82" cy="74.5" r="2"></circle>
                    <circle id="Oval-9" cx="90" cy="74.5" r="2"></circle>
                    <circle id="Oval-9" cx="98" cy="74.5" r="2"></circle>
                    <circle id="Oval-9" cx="106" cy="74.5" r="2"></circle>
                    <circle id="Oval-9" cx="114" cy="74.5" r="2"></circle>
                    <circle id="Oval-9" cx="122" cy="42.5" r="2"></circle>
                    <circle id="Oval-9" cx="130" cy="42.5" r="2"></circle>
                    <circle id="Oval-9" cx="138" cy="42.5" r="2"></circle>
                    <circle id="Oval-9" cx="146" cy="42.5" r="2"></circle>
                    <circle id="Oval-9" cx="154" cy="42.5" r="2"></circle>
                    <circle id="Oval-9" cx="122" cy="50.5" r="2"></circle>
                    <circle id="Oval-9" cx="130" cy="50.5" r="2"></circle>
                    <circle id="Oval-9" cx="138" cy="50.5" r="2"></circle>
                    <circle id="Oval-9" cx="146" cy="50.5" r="2"></circle>
                    <circle id="Oval-9" cx="154" cy="50.5" r="2"></circle>
                    <circle id="Oval-9" cx="122" cy="58.5" r="2"></circle>
                    <circle id="Oval-9" cx="130" cy="58.5" r="2"></circle>
                    <circle id="Oval-9" cx="138" cy="58.5" r="2"></circle>
                    <circle id="Oval-9" cx="146" cy="58.5" r="2"></circle>
                    <circle id="Oval-9" cx="154" cy="58.5" r="2"></circle>
                    <circle id="Oval-9" cx="122" cy="66.5" r="2"></circle>
                    <circle id="Oval-9" cx="130" cy="66.5" r="2"></circle>
                    <circle id="Oval-9" cx="138" cy="66.5" r="2"></circle>
                    <circle id="Oval-9" cx="146" cy="66.5" r="2"></circle>
                    <circle id="Oval-9" cx="154" cy="66.5" r="2"></circle>
                    <circle id="Oval-9" cx="122" cy="74.5" r="2"></circle>
                    <circle id="Oval-9" cx="130" cy="74.5" r="2"></circle>
                    <circle id="Oval-9" cx="138" cy="74.5" r="2"></circle>
                    <circle id="Oval-9" cx="146" cy="74.5" r="2"></circle>
                    <circle id="Oval-9" cx="154" cy="74.5" r="2"></circle>
                </g>
            </g>
        </g>
    </g>
</svg>